<?xml version="1.0" standalone="no"?>
<!DOCTYPE svg PUBLIC "-//W3C//DTD SVG 20010904//EN"
 "http://www.w3.org/TR/2001/REC-SVG-20010904/DTD/svg10.dtd">
<svg version="1.0" xmlns="http://www.w3.org/2000/svg"
 width="1049.000000pt" height="165.000000pt" viewBox="0 0 1049.000000 165.000000"
 preserveAspectRatio="xMidYMid meet">

<g transform="translate(0.000000,165.000000) scale(0.100000,-0.100000)"
fill="#000000" stroke="none">
<path d="M5190 1528 c-61 -96 -225 -261 -331 -331 -278 -184 -626 -277 -1042
-277 -169 0 -485 24 -745 56 -29 3 -52 10 -50 15 2 4 72 42 156 83 l153 76
127 0 c385 0 755 99 866 230 32 39 33 54 1 85 -21 22 -33 25 -94 25 -87 0
-188 -19 -316 -60 -133 -43 -236 -85 -430 -176 l-56 -26 -162 11 c-219 15
-588 58 -997 116 -567 80 -679 90 -1100 90 -362 0 -366 -1 -482 -28 -197 -46
-317 -93 -431 -170 -217 -147 -290 -337 -206 -534 45 -105 194 -213 342 -248
79 -19 247 -19 317 -1 30 8 58 12 61 8 4 -4 14 -30 23 -58 29 -90 107 -195
181 -246 19 -14 13 -4 -18 26 -62 61 -112 137 -137 209 -28 80 -26 89 23 115
104 55 194 176 228 303 15 58 0 115 -41 154 -26 25 -39 30 -76 28 -116 -4
-193 -150 -194 -365 l0 -86 -37 -13 c-22 -8 -87 -13 -153 -13 -93 -1 -129 4
-189 22 -273 86 -360 330 -187 529 55 63 215 153 366 207 133 46 411 71 723
63 294 -8 471 -24 1020 -93 281 -35 714 -81 835 -90 56 -3 105 -10 108 -15 3
-5 -64 -42 -148 -83 l-153 -75 -180 19 c-486 52 -910 68 -1070 41 -254 -43
-435 -155 -452 -279 -7 -56 2 -85 39 -128 62 -70 183 -106 357 -106 278 0 607
97 1076 315 l140 66 70 -9 c259 -34 619 -60 815 -60 449 0 789 84 1067 265
116 76 290 251 368 370 32 50 62 94 65 98 4 5 22 -16 41 -45 207 -329 497
-532 894 -628 185 -44 302 -55 585 -55 250 1 365 8 705 45 l170 18 129 -59
c252 -117 397 -174 656 -257 182 -59 472 -80 617 -46 308 72 276 336 -55 448
-229 78 -552 80 -1255 6 l-179 -19 -154 76 c-85 41 -154 79 -154 83 0 4 51 10
113 14 131 8 536 52 932 102 471 59 649 74 920 81 271 6 440 -4 584 -33 119
-25 294 -88 370 -133 83 -51 174 -143 204 -208 28 -62 30 -171 3 -225 -45 -93
-141 -165 -271 -204 -78 -24 -285 -26 -330 -4 -30 15 -30 15 -36 125 -9 154
-45 254 -109 308 -61 52 -128 45 -176 -19 -44 -57 -40 -119 14 -227 45 -90
130 -182 199 -215 33 -16 35 -19 29 -57 -9 -58 -68 -172 -122 -235 l-47 -55
57 55 c41 39 69 79 97 136 21 44 39 88 39 97 0 25 11 26 70 11 30 -8 101 -14
160 -14 466 0 699 404 407 704 -74 74 -133 116 -230 161 -103 48 -215 81 -352
106 -171 31 -583 38 -850 14 -284 -24 -412 -40 -980 -115 -338 -46 -535 -68
-715 -80 l-159 -11 -78 36 c-373 175 -683 259 -797 215 -60 -23 -52 -91 18
-139 178 -123 468 -191 812 -191 147 0 132 4 338 -94 73 -35 115 -61 109 -67
-13 -13 -441 -56 -671 -68 -192 -10 -402 -2 -507 19 -180 36 -269 63 -432 133
-122 53 -272 155 -380 259 -85 83 -195 215 -210 254 -10 27 -28 13 -73 -58z
m-941 -94 c17 -4 31 -10 31 -14 0 -27 -175 -104 -315 -139 -116 -29 -415 -63
-415 -47 0 10 131 66 262 111 113 39 267 77 353 88 17 2 35 5 41 6 6 0 26 -2
43 -5z m2186 -19 c140 -29 485 -150 513 -180 10 -11 -188 3 -297 20 -177 29
-351 86 -411 135 -49 40 -33 54 49 47 36 -3 102 -13 146 -22z m-4203 -445
c227 -15 521 -42 536 -50 9 -4 -40 -30 -125 -67 -437 -191 -761 -272 -1038
-260 -135 5 -219 30 -267 77 -107 108 51 252 322 295 104 16 365 18 572 5z
m6633 -10 c140 -26 272 -96 306 -160 24 -44 24 -67 -1 -107 -41 -68 -158 -103
-345 -103 -192 0 -382 35 -599 110 -214 74 -524 210 -504 221 13 7 287 32 538
49 163 11 528 5 605 -10z m-7863 -34 c52 -64 -32 -240 -157 -326 -27 -18 -46
-26 -50 -20 -9 14 12 180 29 227 28 80 57 124 89 138 38 17 66 11 89 -19z
m8593 6 c46 -35 86 -142 101 -272 10 -88 4 -96 -50 -60 -80 55 -159 167 -172
246 -6 43 13 97 38 108 19 7 57 -3 83 -22z"/>
<path d="M9489 153 c-13 -16 -12 -17 4 -4 9 7 17 15 17 17 0 8 -8 3 -21 -13z"/>
</g>
</svg>
